<svg width="508" height="702" viewBox="0 0 508 702" fill="none" xmlns="http://www.w3.org/2000/svg">
<path d="M270.933 0C298.027 1.57158e-09 433.493 4.6331e-10 460.587 0C487.68 -4.6331e-10 508 27 508 54C508 81 508 148.5 508 175.5C508 202.5 487.68 222.75 460.587 222.75C433.493 222.75 298.027 222.75 270.933 222.75C243.84 222.75 209.973 256.5 209.973 283.5C209.973 310.5 209.973 378 209.973 405C209.973 432 243.84 465.75 270.933 465.75C298.027 465.75 433.493 465.75 460.587 465.75C487.68 465.75 508 496.125 508 523.125C508 550.125 508 614.25 508 641.25C508 668.25 487.68 702 460.587 702C433.493 702 298.027 702 270.933 702C243.84 702 223.52 678.375 223.52 651.375C223.52 624.375 223.52 553.5 223.52 523.125C223.52 492.75 189.653 465.75 162.56 465.75C135.467 465.75 67.7335 465.75 40.6402 465.75C13.5468 465.75 0.000849535 432 0.000190144 405C-0.000469247 378 0.000851485 310.5 0.000190144 283.5C-0.000471197 256.5 13.5468 232.875 40.6402 232.875C67.7335 232.875 135.467 232.875 162.56 232.875C189.653 232.875 223.52 202.5 223.52 175.5C223.52 148.5 223.52 81 223.52 54C223.52 27 243.84 -1.57158e-09 270.933 0Z" fill="#D9D9D9"/>
</svg>
