<svg width="193" height="76" viewBox="0 0 193 76" fill="none" xmlns="http://www.w3.org/2000/svg">
<path d="M80.1648 34.8693H75.9034C75.8466 34.4318 75.7301 34.0369 75.554 33.6847C75.3778 33.3324 75.1449 33.0312 74.8551 32.7812C74.5653 32.5312 74.2216 32.3409 73.8239 32.2102C73.4318 32.0739 72.9972 32.0057 72.5199 32.0057C71.6733 32.0057 70.9432 32.2131 70.3295 32.6278C69.7216 33.0426 69.2528 33.642 68.9233 34.4261C68.5994 35.2102 68.4375 36.1591 68.4375 37.2727C68.4375 38.4318 68.6023 39.4034 68.9318 40.1875C69.267 40.9659 69.7358 41.554 70.3381 41.9517C70.946 42.3437 71.6648 42.5398 72.4943 42.5398C72.9602 42.5398 73.3835 42.4801 73.7642 42.3608C74.1506 42.2415 74.4886 42.0682 74.7784 41.8409C75.0739 41.608 75.3153 41.3267 75.5028 40.9972C75.696 40.6619 75.8295 40.2841 75.9034 39.8636L80.1648 39.8892C80.0909 40.6619 79.8665 41.4233 79.4915 42.1733C79.1222 42.9233 78.6136 43.608 77.9659 44.2273C77.3182 44.8409 76.5284 45.3295 75.5966 45.6932C74.6705 46.0568 73.608 46.2386 72.4091 46.2386C70.8295 46.2386 69.4148 45.892 68.1648 45.1989C66.9205 44.5 65.9375 43.483 65.2159 42.1477C64.4943 40.8125 64.1335 39.1875 64.1335 37.2727C64.1335 35.3523 64.5 33.7244 65.233 32.3892C65.9659 31.054 66.9574 30.0398 68.2074 29.3466C69.4574 28.6534 70.858 28.3068 72.4091 28.3068C73.4659 28.3068 74.4432 28.4545 75.3409 28.75C76.2386 29.0398 77.0284 29.4659 77.7102 30.0284C78.392 30.5852 78.946 31.2699 79.3722 32.0824C79.7983 32.8949 80.0625 33.8239 80.1648 34.8693ZM90.7091 46H86.175L92.0642 28.5455H97.6807L103.57 46H99.0358L94.9364 32.9432H94.8L90.7091 46ZM90.104 39.1307H99.5812V42.3352H90.104V39.1307ZM110.249 28.5455H115.474L119.905 39.3523H120.11L124.542 28.5455H129.766V46H125.658V35.2784H125.513L121.32 45.8892H118.695L114.502 35.2188H114.357V46H110.249V28.5455ZM137.198 46V28.5455H144.476C145.783 28.5455 146.877 28.7301 147.757 29.0994C148.644 29.4687 149.308 29.9858 149.752 30.6506C150.2 31.3153 150.425 32.0852 150.425 32.9602C150.425 33.625 150.286 34.2188 150.007 34.7415C149.729 35.2585 149.345 35.6875 148.857 36.0284C148.368 36.3693 147.803 36.608 147.161 36.7443V36.9148C147.865 36.9489 148.516 37.1392 149.112 37.4858C149.715 37.8324 150.198 38.3153 150.561 38.9347C150.925 39.5483 151.107 40.2756 151.107 41.1165C151.107 42.054 150.868 42.892 150.391 43.6307C149.913 44.3636 149.223 44.9432 148.32 45.3693C147.416 45.7898 146.32 46 145.03 46H137.198ZM141.416 42.5994H144.024C144.939 42.5994 145.612 42.4261 146.044 42.0795C146.482 41.733 146.7 41.25 146.7 40.6307C146.7 40.1818 146.595 39.7955 146.385 39.4716C146.175 39.142 145.877 38.8892 145.49 38.7131C145.104 38.5312 144.641 38.4403 144.101 38.4403H141.416V42.5994ZM141.416 35.7216H143.752C144.212 35.7216 144.621 35.6449 144.979 35.4915C145.337 35.3381 145.615 35.1165 145.814 34.8267C146.019 34.5369 146.121 34.1875 146.121 33.7784C146.121 33.1932 145.913 32.733 145.499 32.3977C145.084 32.0625 144.524 31.8949 143.82 31.8949H141.416V35.7216ZM157.935 46V28.5455H170.106V31.9716H162.154V35.5511H169.483V38.9858H162.154V42.5739H170.106V46H157.935ZM177.548 46V28.5455H184.758C186.065 28.5455 187.192 28.7812 188.141 29.2528C189.096 29.7187 189.832 30.3892 190.349 31.2642C190.866 32.1335 191.124 33.1648 191.124 34.358C191.124 35.5682 190.86 36.5966 190.332 37.4432C189.803 38.2841 189.053 38.9261 188.082 39.3693C187.11 39.8068 185.96 40.0256 184.63 40.0256H180.07V36.7017H183.846C184.482 36.7017 185.013 36.6193 185.44 36.4545C185.871 36.2841 186.198 36.0284 186.42 35.6875C186.641 35.3409 186.752 34.8977 186.752 34.358C186.752 33.8182 186.641 33.3722 186.42 33.0199C186.198 32.6619 185.871 32.3949 185.44 32.2188C185.008 32.0369 184.477 31.946 183.846 31.946H181.766V46H177.548ZM187.374 38.0227L191.721 46H187.119L182.857 38.0227H187.374Z" fill="white"/>
<path d="M29.3333 0C32.2667 1.70143e-10 46.9333 0 49.8667 0C52.8 0 55 2.92308 55 5.84615C55 8.76923 55 16.0769 55 19C55 21.9231 52.8 24.1154 49.8667 24.1154C46.9333 24.1154 32.2667 24.1154 29.3333 24.1154C26.4 24.1154 22.7333 27.7692 22.7333 30.6923C22.7333 33.6154 22.7333 40.9231 22.7333 43.8462C22.7333 46.7692 26.4 50.4231 29.3333 50.4231C32.2667 50.4231 46.9333 50.4231 49.8667 50.4231C52.8 50.4231 55 53.7115 55 56.6346C55 59.5577 55 66.5 55 69.4231C55 72.3462 52.8 76 49.8667 76C46.9333 76 32.2667 76 29.3333 76C26.4 76 24.2 73.4423 24.2 70.5192C24.2 67.5961 24.2 59.9231 24.2 56.6346C24.2 53.3462 20.5333 50.4231 17.6 50.4231C14.6667 50.4231 7.33335 50.4231 4.40002 50.4231C1.46669 50.4231 9.19772e-05 46.7692 2.05865e-05 43.8462C-5.08043e-05 40.9231 9.21884e-05 33.6154 2.05865e-05 30.6923C-5.10154e-05 27.7692 1.46669 25.2115 4.40002 25.2115C7.33335 25.2115 14.6667 25.2115 17.6 25.2115C20.5333 25.2115 24.2 21.9231 24.2 19C24.2 16.0769 24.2 8.76923 24.2 5.84615C24.2 2.92308 26.4 -1.70143e-10 29.3333 0Z" fill="#D9D9D9"/>
</svg>
