<svg width="81" height="81" viewBox="0 0 81 81" fill="none" xmlns="http://www.w3.org/2000/svg">
<g filter="url(#filter0_d_1_293)">
<path fill-rule="evenodd" clip-rule="evenodd" d="M2.36941 2.95785C3.68802 1.63923 5.47645 0.898438 7.34125 0.898438H73.2788C75.1436 0.898438 76.932 1.63923 78.2506 2.95785C79.5692 4.27646 80.31 6.06488 80.31 7.92969V73.8672C80.31 75.732 79.5692 77.5204 78.2506 78.839C76.932 80.1576 75.1436 80.8984 73.2788 80.8984H7.34125C5.47644 80.8984 3.68802 80.1576 2.36941 78.839C1.05079 77.5204 0.309998 75.732 0.309998 73.8672V7.92969C0.309998 6.06489 1.05079 4.27646 2.36941 2.95785ZM7.34125 5.58594C6.71965 5.58594 6.12351 5.83287 5.68397 6.27241C5.24443 6.71195 4.9975 7.30809 4.9975 7.92969V73.8672C4.9975 74.4887 5.24443 75.0849 5.68397 75.5244C6.12351 75.964 6.71965 76.2109 7.34125 76.2109H73.2788C73.9003 76.2109 74.4965 75.964 74.936 75.5244C75.3756 75.0849 75.6225 74.4887 75.6225 73.8672V7.92969C75.6225 7.30809 75.3756 6.71195 74.936 6.27241C74.4965 5.83287 73.9003 5.58594 73.2788 5.58594H7.34125Z" fill="#EEEAEA"/>
<path fill-rule="evenodd" clip-rule="evenodd" d="M23.7475 21.9922C23.7475 20.6977 24.7968 19.6484 26.0912 19.6484H54.5288C55.8232 19.6484 56.8725 20.6977 56.8725 21.9922V68.8672C56.8725 70.1616 55.8232 71.2109 54.5288 71.2109H26.0912C24.7968 71.2109 23.7475 70.1616 23.7475 68.8672V21.9922ZM28.435 24.3359V66.5234H52.185V24.3359H28.435Z" fill="#EEEAEA"/>
<path fill-rule="evenodd" clip-rule="evenodd" d="M2.36941 2.95785C3.68802 1.63923 5.47645 0.898438 7.34125 0.898438H73.2788C75.1436 0.898438 76.932 1.63923 78.2506 2.95785C79.5692 4.27646 80.31 6.06488 80.31 7.92969V12.6172C80.31 13.9116 79.2607 14.9609 77.9662 14.9609H2.65375C1.35933 14.9609 0.309998 13.9116 0.309998 12.6172V7.92969C0.309998 6.06489 1.05079 4.27646 2.36941 2.95785ZM7.34125 5.58594C6.71965 5.58594 6.12351 5.83287 5.68397 6.27241C5.24443 6.71195 4.9975 7.30809 4.9975 7.92969V10.2734H75.6225V7.92969C75.6225 7.30809 75.3756 6.71195 74.936 6.27241C74.4965 5.83287 73.9003 5.58594 73.2788 5.58594H7.34125Z" fill="#EEEAEA"/>
<path fill-rule="evenodd" clip-rule="evenodd" d="M12.0288 0.898438C13.3232 0.898438 14.3725 1.94777 14.3725 3.24219V12.6172C14.3725 13.9116 13.3232 14.9609 12.0288 14.9609C10.7343 14.9609 9.685 13.9116 9.685 12.6172V3.24219C9.685 1.94777 10.7343 0.898438 12.0288 0.898438Z" fill="#EEEAEA"/>
<path fill-rule="evenodd" clip-rule="evenodd" d="M21.4038 0.898438C22.6982 0.898438 23.7475 1.94777 23.7475 3.24219V12.6172C23.7475 13.9116 22.6982 14.9609 21.4038 14.9609C20.1093 14.9609 19.06 13.9116 19.06 12.6172V3.24219C19.06 1.94777 20.1093 0.898438 21.4038 0.898438Z" fill="#EEEAEA"/>
<path fill-rule="evenodd" clip-rule="evenodd" d="M30.7788 0.898438C32.0732 0.898438 33.1225 1.94777 33.1225 3.24219V12.6172C33.1225 13.9116 32.0732 14.9609 30.7788 14.9609C29.4843 14.9609 28.435 13.9116 28.435 12.6172V3.24219C28.435 1.94777 29.4843 0.898438 30.7788 0.898438Z" fill="#EEEAEA"/>
<path fill-rule="evenodd" clip-rule="evenodd" d="M61.4613 37.5224C62.3766 36.6071 63.8606 36.6071 64.7759 37.5224L71.0259 43.7724C71.9412 44.6877 71.9412 46.1716 71.0259 47.0869L64.7759 53.3369C63.8606 54.2522 62.3766 54.2522 61.4613 53.3369C60.546 52.4216 60.546 50.9377 61.4613 50.0224L66.054 45.4296L61.4613 40.8369C60.546 39.9216 60.546 38.4377 61.4613 37.5224Z" fill="#EEEAEA"/>
<path fill-rule="evenodd" clip-rule="evenodd" d="M19.1509 37.5224C20.0662 38.4377 20.0662 39.9216 19.1509 40.8369L14.5582 45.4296L19.1509 50.0224C20.0662 50.9377 20.0662 52.4216 19.1509 53.3369C18.2356 54.2522 16.7516 54.2522 15.8363 53.3369L9.58631 47.0869C8.67102 46.1716 8.67102 44.6877 9.58631 43.7724L15.8363 37.5224C16.7516 36.6071 18.2356 36.6071 19.1509 37.5224Z" fill="#EEEAEA"/>
</g>
<defs>
<filter id="filter0_d_1_293" x="-3.69" y="-1.10156" width="88" height="88" filterUnits="userSpaceOnUse" color-interpolation-filters="sRGB">
<feFlood flood-opacity="0" result="BackgroundImageFix"/>
<feColorMatrix in="SourceAlpha" type="matrix" values="0 0 0 0 0 0 0 0 0 0 0 0 0 0 0 0 0 0 127 0" result="hardAlpha"/>
<feOffset dy="2"/>
<feGaussianBlur stdDeviation="2"/>
<feComposite in2="hardAlpha" operator="out"/>
<feColorMatrix type="matrix" values="0 0 0 0 0 0 0 0 0 0 0 0 0 0 0 0 0 0 0.25 0"/>
<feBlend mode="normal" in2="BackgroundImageFix" result="effect1_dropShadow_1_293"/>
<feBlend mode="normal" in="SourceGraphic" in2="effect1_dropShadow_1_293" result="shape"/>
</filter>
</defs>
</svg>
