<svg width="742" height="742" viewBox="0 0 742 742" fill="none" xmlns="http://www.w3.org/2000/svg">
<circle cx="371" cy="371" r="371" fill="black"/>
<path d="M167 539.3L168.6 543.9C168.4 543.4 167.8 541.8 167 539.3ZM231.9 434.4C234.8 409.5 244.6 395.6 263 381.3C289.4 362 322.3 372.9 322.3 372.9V308C330.3 307.8 338.3 308.3 346.2 309.5V393C346.2 393 313.3 382.1 286.9 401.4C268.5 415.7 258.7 429.6 255.8 454.5C255.7 468 258.1 485.7 269.3 500.9C266.5 499.4 263.7 497.7 260.8 495.8C236.3 478.6 231.8 452.7 231.9 434.4ZM482.3 188C464.2 167.3 457.3 146.3 454.8 131.6H477.6C477.6 131.6 473.1 170.2 506.2 208.1L506.7 208.6C497.7 202.8 489.5 195.8 482.3 188ZM592.2 246.8V328.6C592.2 328.6 563.1 327.4 541.5 321.7C511.4 313.7 492.1 301.4 492.1 301.4C492.1 301.4 478.7 292.6 477.7 292V461C477.7 470.4 475.2 493.9 467.7 513.5C457.9 539.1 442.7 556 439.9 559.4C439.9 559.4 421.4 582.2 388.9 597.5C359.6 611.3 333.8 611 326.1 611.3C326.1 611.3 281.6 613.1 241.5 586C232.8 580 224.7 573.2 217.3 565.7L217.5 565.9C257.6 593.1 302.1 591.2 302.1 591.2C309.8 590.9 335.6 591.2 364.9 577.4C397.4 562.1 415.9 539.3 415.9 539.3C418.7 535.9 433.9 519 443.7 493.4C451.2 473.8 453.7 450.3 453.7 440.9V272C454.8 272.6 468.1 281.4 468.1 281.4C468.1 281.4 487.4 293.7 517.5 301.7C539.1 307.4 568.2 308.6 568.2 308.6V244.5C578.2 246.8 586.7 247.4 592.2 246.8Z" fill="#EE1D52"/>
<path d="M568.2 244.4V308.5C568.2 308.5 539.1 307.3 517.5 301.6C487.4 293.6 468.1 281.3 468.1 281.3C468.1 281.3 454.7 272.5 453.7 271.9V440.9C453.7 450.3 451.2 473.8 443.7 493.4C433.9 519 418.7 535.9 415.9 539.3C415.9 539.3 397.4 562.1 364.9 577.4C335.6 591.2 309.8 590.9 302.1 591.2C302.1 591.2 257.6 593 217.5 565.9L217.3 565.7C213.1 561.4 209.1 556.9 205.4 552.2C192.6 535.9 184.8 516.7 182.8 511.2V511.1C179.6 501.6 173 478.6 173.9 456.5C175.5 417.4 188.7 393.3 192.2 387.3C201.4 370.9 213.5 356.2 227.7 343.9C240.3 333.3 254.6 324.8 269.9 318.9C286.5 311.9 304.3 308.2 322.3 307.9V372.8C322.3 372.8 289.4 361.9 263 381.2C244.6 395.5 234.8 409.4 231.9 434.3C231.8 452.6 236.3 478.5 260.9 495.8C263.8 497.7 266.6 499.4 269.4 500.9C273.7 506.7 278.9 511.8 284.9 516C309 531.9 329.1 533 354.9 522.7C372.1 515.8 385 500.3 391 483C394.8 472.2 394.7 461.4 394.7 450.2V131.6H454.7C457.2 146.3 464 167.3 482.2 188C489.5 195.8 497.7 202.8 506.6 208.6C509.2 211.5 522.7 225.5 540.1 234.2C549 238.7 558.5 242.1 568.2 244.4Z" fill="white"/>
<path d="M158.9 491.4L160.4 495.7C160.2 495.2 159.6 493.7 158.9 491.4Z" fill="#69C9D0"/>
<path d="M269.9 318.999C254.5 324.899 240.3 333.399 227.7 343.999C213.4 356.299 201.4 371.099 192.2 387.499C188.7 393.499 175.5 417.5 173.9 456.7C173 478.9 179.7 501.799 182.8 511.299V511.399C184.8 516.799 192.6 536.099 205.4 552.399C209.1 557.099 213.1 561.6 217.3 565.9C203.7 556.5 191.7 545.199 181.4 532.299C168.7 516.199 160.9 497.099 158.9 491.499V491.299C155.7 481.799 149 458.8 150 436.6C151.6 397.5 164.8 373.399 168.3 367.399C177.5 350.999 189.5 336.199 203.8 323.899C216.4 313.299 230.7 304.799 246 298.899C255.6 294.899 265.6 291.999 275.8 290.099C291.2 287.399 306.9 287.199 322.4 289.399V307.999C304.3 308.299 286.5 311.999 269.9 318.999Z" fill="#69C9D0"/>
<path d="M454.8 131.6H394.8V450.2C394.8 461.4 394.8 472.2 391.1 483C385 500.2 372.1 515.8 355 522.7C329.2 533.1 309 531.9 285 516C279 511.9 273.8 506.8 269.5 501C290 511.9 308.3 511.7 331 502.6C348.2 495.7 361.1 480.1 367.1 462.9C370.9 452.1 370.8 441.3 370.8 430.1V111.5H453.7C453.6 111.5 452.7 119.4 454.8 131.6ZM568.2 226.7V244.4C558.5 242.1 549 238.7 540.1 234.2C522.8 225.6 509.3 211.5 506.6 208.6C509.7 210.6 512.8 212.4 516.1 214.1C537.3 224.6 558 227.8 568.2 226.7Z" fill="#69C9D0"/>
</svg>
